<svg xmlns="http://www.w3.org/2000/svg" viewBox="0 0 520 460" width="100%" height="100%" style="background-color: #ffffff; font-family: system-ui, -apple-system, sans-serif;">
  <defs>
    <linearGradient id="waterGrad" x1="0%" y1="0%" x2="0%" y2="100%">
      <stop offset="0%" stop-color="#38bdf8" stop-opacity="0.5" />
      <stop offset="100%" stop-color="#0284c7" stop-opacity="0.3" />
    </linearGradient>

    <linearGradient id="emptyGrad" x1="0%" y1="0%" x2="0%" y2="100%">
      <stop offset="0%" stop-color="#f1f5f9" stop-opacity="0.4" />
      <stop offset="100%" stop-color="#e2e8f0" stop-opacity="0.2" />
    </linearGradient>
  </defs>

  <!-- Background -->
  <rect width="520" height="460" fill="#ffffff" rx="12" />

  <!-- Grid Pattern -->
  <g stroke="#e2e8f0" stroke-width="0.8" stroke-dasharray="4,4">
    <line x1="40" y1="0" x2="40" y2="460" />
    <line x1="120" y1="0" x2="120" y2="460" />
    <line x1="200" y1="0" x2="200" y2="460" />
    <line x1="280" y1="0" x2="280" y2="460" />
    <line x1="360" y1="0" x2="360" y2="460" />
    <line x1="440" y1="0" x2="440" y2="460" />
    
    <line x1="0" y1="60" x2="520" y2="60" />
    <line x1="0" y1="140" x2="520" y2="140" />
    <line x1="0" y1="220" x2="520" y2="220" />
    <line x1="0" y1="300" x2="520" y2="300" />
    <line x1="0" y1="380" x2="520" y2="380" />
  </g>

  <!-- Centered Diagram: 2D Cross-Section of Container -->
  <!-- 
       Center X = 260
       Height = 300 px (from y=400 at t=0 to y=100 at t=1)
       Midline at y=250 (t=1/2)

       Bottom (t=0): width = 100 px => x: [210, 310], y=400
       Midline (t=1/2): width = 200 px => x: [160, 360], y=250
       Top (t=1): width = 300 px => x: [110, 410], y=100
  -->
  <g transform="translate(0, 10)">
    <!-- Height Axis on Left -->
    <line x1="60" y1="400" x2="60" y2="100" stroke="#64748b" stroke-width="1.5" stroke-dasharray="4,4" />
    
    <!-- Ticks & Text -->
    <line x1="55" y1="400" x2="65" y2="400" stroke="#64748b" stroke-width="2" />
    <text x="25" y="404" fill="#0f172a" font-size="12" font-weight="bold">t = 0</text>

    <line x1="55" y1="250" x2="65" y2="250" stroke="#64748b" stroke-width="2" />
    <text x="15" y="254" fill="#0284c7" font-size="12" font-weight="bold">t = 1/2</text>

    <line x1="55" y1="100" x2="65" y2="100" stroke="#64748b" stroke-width="2" />
    <text x="25" y="104" fill="#0f172a" font-size="12" font-weight="bold">t = 1</text>

    <!-- Lower Half (Filled Water) -->
    <polygon points="210,400 310,400 360,250 160,250" fill="url(#waterGrad)" stroke="#0284c7" stroke-width="2.5" />
    <text x="260" y="330" fill="#0369a1" font-size="15" font-weight="800" text-anchor="middle">V_lower = 7/6</text>
    <text x="260" y="352" fill="#0284c7" font-size="13" font-weight="bold" text-anchor="middle">(Time = 35 min)</text>

    <!-- Upper Half (Empty Remaining Volume) -->
    <polygon points="160,250 360,250 410,100 110,100" fill="url(#emptyGrad)" stroke="#64748b" stroke-width="2" stroke-dasharray="5,4" />
    <text x="260" y="170" fill="#475569" font-size="15" font-weight="800" text-anchor="middle">V_upper = 19/6</text>
    <text x="260" y="192" fill="#15803d" font-size="13" font-weight="bold" text-anchor="middle">(Time = 95 min)</text>

    <!-- Width Labels -->
    <!-- Bottom 1x1 -->
    <line x1="210" y1="415" x2="310" y2="415" stroke="#0f172a" stroke-width="1.5" />
    <text x="260" y="432" fill="#0f172a" font-size="12" font-weight="bold" text-anchor="middle">Bottom s(0) = 1</text>

    <!-- Midline 2x2 -->
    <line x1="160" y1="250" x2="360" y2="250" stroke="#0284c7" stroke-width="2" stroke-dasharray="3,3" />
    <text x="260" y="242" fill="#0284c7" font-size="12" font-weight="bold" text-anchor="middle">Midline s(1/2) = 2</text>

    <!-- Top 3x3 -->
    <line x1="110" y1="85" x2="410" y2="85" stroke="#0f172a" stroke-width="1.5" />
    <text x="260" y="75" fill="#0f172a" font-size="12" font-weight="bold" text-anchor="middle">Top s(1) = 3</text>
  </g>
</svg>
