<svg xmlns="http://www.w3.org/2000/svg" viewBox="0 0 500 370" width="100%" height="100%" style="background-color: #ffffff; font-family: system-ui, -apple-system, sans-serif;">
  <defs>
    <linearGradient id="triGradBase" x1="0%" y1="0%" x2="100%" y2="100%">
      <stop offset="0%" stop-color="#94a3b8" stop-opacity="0.2" />
      <stop offset="100%" stop-color="#64748b" stop-opacity="0.1" />
    </linearGradient>

    <linearGradient id="triGradMax" x1="0%" y1="0%" x2="100%" y2="100%">
      <stop offset="0%" stop-color="#0284c7" stop-opacity="0.25" />
      <stop offset="100%" stop-color="#0369a1" stop-opacity="0.15" />
    </linearGradient>
  </defs>

  <!-- Background -->
  <rect width="500" height="370" fill="#ffffff" rx="12" />
  <!-- Grid Pattern -->
  <g stroke="#e2e8f0" stroke-width="0.8" stroke-dasharray="4,4">
    <line x1="40" y1="0" x2="40" y2="370" />
    <line x1="120" y1="0" x2="120" y2="370" />
    <line x1="200" y1="0" x2="200" y2="370" />
    <line x1="280" y1="0" x2="280" y2="370" />
    <line x1="360" y1="0" x2="360" y2="370" />
    <line x1="440" y1="0" x2="440" y2="370" />
    
    <line x1="0" y1="50" x2="520" y2="50" />
    <line x1="0" y1="110" x2="520" y2="110" />
    <line x1="0" y1="170" x2="520" y2="170" />
    <line x1="0" y1="230" x2="520" y2="230" />
    <line x1="0" y1="290" x2="520" y2="290" />
    <line x1="0" y1="350" x2="520" y2="350" />
  </g>

  <!-- Complex Plane Axes -->
  <!-- Origin O = (100, 240), Scale S = 160 px / unit -->
  <g transform="translate(0, -45)">
    <!-- Axes -->
    <line x1="40" y1="240" x2="460" y2="240" stroke="#64748b" stroke-width="1.5" />
    <text x="445" y="230" fill="#64748b" font-size="12" font-weight="700">Re</text>

    <line x1="100" y1="420" x2="100" y2="70" stroke="#64748b" stroke-width="1.5" />
    <text x="110" y="85" fill="#64748b" font-size="12" font-weight="700">Im</text>

    <!-- Origin point -->
    <circle cx="100" cy="240" r="4" fill="#0f172a" />
    <text x="85" y="258" fill="#0f172a" font-size="13" font-weight="bold">O(0)</text>

    <!-- Circle |z - 1/2| = 1/4 -->
    <!-- Center = (100 + 0.5*160, 240) = (180, 240) -->
    <!-- Radius = 0.25 * 160 = 40 px -->
    <circle cx="180" cy="240" r="40" fill="#e0f2fe" fill-opacity="0.3" stroke="#0284c7" stroke-width="2" stroke-dasharray="4,3" />
    <circle cx="180" cy="240" r="3" fill="#0284c7" />
    <text x="175" y="260" fill="#0284c7" font-size="11" font-weight="bold">1/2</text>

    <!-- Vector to Farthest point z_max = 3/4 -->
    <!-- Point z_max = (100 + 0.75*160, 240) = (220, 240) -->
    <line x1="100" y1="240" x2="220" y2="240" stroke="#d97706" stroke-width="3" />
    <circle cx="220" cy="240" r="5" fill="#d97706" />
    <text x="210" y="268" fill="#b45309" font-size="12" font-weight="800">z_max = 3/4</text>
    <text x="135" y="230" fill="#b45309" font-size="12" font-weight="bold">|z| = 3/4</text>

    <!-- Base Triangle (for z=1) -->
    <!-- Vertices: 2 => (420, 240), 1+i => (260, 80), 1-i => (260, 400) -->
    <polygon points="420,240 260,80 260,400" fill="url(#triGradBase)" stroke="#94a3b8" stroke-width="1.5" stroke-dasharray="4,4" />
    <text x="425" y="240" fill="#64748b" font-size="11">2</text>
    <text x="265" y="75" fill="#64748b" font-size="11">1+i</text>
    <text x="265" y="415" fill="#64748b" font-size="11">1-i</text>
    <text x="330" y="140" fill="#64748b" font-size="12" font-weight="bold">Base Area = 1</text>

    <!-- Scaled Triangle for z = 3/4 -->
    <!-- Vertices: 2z => (340, 240), (1+i)z => (220, 120), (1-i)z => (220, 360) -->
    <polygon points="340,240 220,120 220,360" fill="url(#triGradMax)" stroke="#0284c7" stroke-width="2.5" stroke-linejoin="round" />
    <circle cx="340" cy="240" r="4" fill="#0284c7" />
    <circle cx="220" cy="120" r="4" fill="#0284c7" />
    <circle cx="220" cy="360" r="4" fill="#0284c7" />
    
    <text x="345" y="240" fill="#0284c7" font-size="12" font-weight="bold">2z</text>
    <text x="215" y="110" fill="#0284c7" font-size="12" font-weight="bold">(1+i)z</text>
    <text x="215" y="378" fill="#0284c7" font-size="12" font-weight="bold">(1-i)z</text>

    <text x="235" y="190" fill="#0284c7" font-size="14" font-weight="800">Max Area = (3/4)² = 9/16</text>
  </g>
</svg>
