<svg xmlns="http://www.w3.org/2000/svg" viewBox="0 0 520 440" width="100%" height="100%" style="background-color: #ffffff; font-family: system-ui, -apple-system, sans-serif;">
  <defs>
    <linearGradient id="triGrad" x1="0%" y1="0%" x2="100%" y2="100%">
      <stop offset="0%" stop-color="#0284c7" stop-opacity="0.15" />
      <stop offset="100%" stop-color="#6366f1" stop-opacity="0.08" />
    </linearGradient>
  </defs>

  <!-- Background -->
  <rect width="520" height="440" fill="#ffffff" rx="12" />

  <!-- Grid Pattern -->
  <g stroke="#e2e8f0" stroke-width="0.8" stroke-dasharray="4,4">
    <line x1="40" y1="0" x2="40" y2="440" />
    <line x1="120" y1="0" x2="120" y2="440" />
    <line x1="200" y1="0" x2="200" y2="440" />
    <line x1="280" y1="0" x2="280" y2="440" />
    <line x1="360" y1="0" x2="360" y2="440" />
    <line x1="440" y1="0" x2="440" y2="440" />
    
    <line x1="0" y1="60" x2="520" y2="60" />
    <line x1="0" y1="140" x2="520" y2="140" />
    <line x1="0" y1="220" x2="520" y2="220" />
    <line x1="0" y1="300" x2="520" y2="300" />
    <line x1="0" y1="380" x2="520" y2="380" />
  </g>

  <!-- Concentric Circles & Rotation Geometry -->
  <!-- 
       Origin O = (240, 240)
       Scale S = 60 px / unit

       Circles: r1 = 60, r2 = 120, r3 = 180
       Points:
       O  = (240, 240)
       P  = (240 + 30, 240 - 51.96) = (270, 188)
       Q  = (240 + 60, 240 + 103.92) = (300, 344)
       R  = (240 + 180, 240)        = (420, 240)
       O' = (240 + 60, 240)         = (300, 240)
  -->

  <g transform="translate(0, 10)">
    <!-- Concentric Circles -->
    <!-- Circle 1: r = 60 -->
    <circle cx="240" cy="240" r="60" fill="none" stroke="#0284c7" stroke-width="1.5" stroke-dasharray="5,4" />
    <text x="178" y="235" fill="#0284c7" font-size="11" font-weight="600">r₁ = 1</text>

    <!-- Circle 2: r = 120 -->
    <circle cx="240" cy="240" r="120" fill="none" stroke="#4f46e5" stroke-width="1.5" stroke-dasharray="5,4" />
    <text x="118" y="235" fill="#4f46e5" font-size="11" font-weight="600">r₂ = 2</text>

    <!-- Circle 3: r = 180 -->
    <circle cx="240" cy="240" r="180" fill="none" stroke="#7c3aed" stroke-width="1.5" stroke-dasharray="5,4" />
    <text x="58" y="235" fill="#7c3aed" font-size="11" font-weight="600">r₃ = 3</text>

    <!-- Collinear Line O - O' - R -->
    <line x1="240" y1="240" x2="420" y2="240" stroke="#d97706" stroke-width="3" stroke-dasharray="6,3" />
    <text x="255" y="258" fill="#b45309" font-size="11" font-weight="700">OO' = 1</text>
    <text x="340" y="258" fill="#b45309" font-size="11" font-weight="700">O'R = 2</text>

    <!-- Original Equilateral Triangle PQR -->
    <polygon points="270,188 300,344 420,240" fill="url(#triGrad)" stroke="#0284c7" stroke-width="2.5" stroke-linejoin="round" />
    
    <!-- Rotated Triangle side PO' and O'R (Rotated △POQ -> △PO'R) -->
    <!-- △POO' is equilateral (side 1) -->
    <polygon points="270,188 240,240 300,240" fill="#fef3c7" fill-opacity="0.5" stroke="#d97706" stroke-width="2" stroke-dasharray="4,3" />
    
    <!-- Line PO' -->
    <line x1="270" y1="188" x2="300" y2="240" stroke="#d97706" stroke-width="2" />
    <!-- Line O'R -->
    <line x1="300" y1="240" x2="420" y2="240" stroke="#d97706" stroke-width="2" />

    <!-- Angle Arcs -->
    <!-- Angle PO'O = 60 deg arc at O' (300, 240) pointing up-left -->
    <path d="M 282 240 A 18 18 0 0 1 289 225" fill="none" stroke="#d97706" stroke-width="2" />
    <text x="266" y="228" fill="#b45309" font-size="11" font-weight="bold">60°</text>

    <!-- Angle PO'R = 120 deg arc at O' pointing up-right -->
    <path d="M 289 225 A 18 18 0 0 1 318 240" fill="none" stroke="#e11d48" stroke-width="2" />
    <text x="306" y="225" fill="#e11d48" font-size="12" font-weight="bold">120°</text>

    <!-- Vertices and Points -->
    <!-- Point O (Center) -->
    <circle cx="240" cy="240" r="5" fill="#d97706" stroke="#ffffff" stroke-width="1.5" />
    <text x="222" y="245" fill="#0f172a" font-size="15" font-weight="800">O</text>

    <!-- Point P (on Circle 1) -->
    <circle cx="270" cy="188" r="5" fill="#0284c7" stroke="#ffffff" stroke-width="1.5" />
    <text x="262" y="175" fill="#0284c7" font-size="15" font-weight="800">P (on r₁)</text>

    <!-- Point Q (on Circle 2) -->
    <circle cx="300" cy="344" r="5" fill="#4f46e5" stroke="#ffffff" stroke-width="1.5" />
    <text x="308" y="360" fill="#4f46e5" font-size="15" font-weight="800">Q (on r₂)</text>

    <!-- Point R (on Circle 3) -->
    <circle cx="420" cy="240" r="5" fill="#7c3aed" stroke="#ffffff" stroke-width="1.5" />
    <text x="430" y="245" fill="#7c3aed" font-size="15" font-weight="800">R (on r₃)</text>

    <!-- Auxiliary Point O' -->
    <circle cx="300" cy="240" r="5" fill="#d97706" stroke="#ffffff" stroke-width="1.5" />
    <text x="296" y="272" fill="#b45309" font-size="15" font-weight="800">O'</text>

    <!-- Labels for sides -->
    <!-- PR (side s) -->
    <text x="355" y="205" fill="#0284c7" font-size="14" font-weight="bold">s</text>
    <!-- PO' (length 1) -->
    <text x="292" y="208" fill="#b45309" font-size="12" font-weight="bold">1</text>
  </g>
</svg>
