<svg xmlns="http://www.w3.org/2000/svg" viewBox="0 0 520 382" width="100%" height="100%" style="background-color: #ffffff; font-family: 'Latin Modern Math', 'Computer Modern', 'STIX Two Text', 'Times New Roman', Cambria, serif;">
  <!-- Background -->
  <rect width="520" height="382" fill="#ffffff" rx="12" />
  <!-- Grid Pattern -->
  <g stroke="#e2e8f0" stroke-width="0.8" stroke-dasharray="4,4">
    <line x1="40" y1="0" x2="40" y2="382" />
    <line x1="120" y1="0" x2="120" y2="382" />
    <line x1="200" y1="0" x2="200" y2="382" />
    <line x1="280" y1="0" x2="280" y2="382" />
    <line x1="360" y1="0" x2="360" y2="382" />
    <line x1="440" y1="0" x2="440" y2="382" />
    
    <line x1="0" y1="50" x2="520" y2="50" />
    <line x1="0" y1="110" x2="520" y2="110" />
    <line x1="0" y1="170" x2="520" y2="170" />
    <line x1="0" y1="230" x2="520" y2="230" />
    <line x1="0" y1="290" x2="520" y2="290" />
    <line x1="0" y1="350" x2="520" y2="350" />
  </g>

  <!-- Cyclic Pentagon Diagram -->
  <!-- Center O = (260, 240), R = 150 px -->
  <g transform="translate(0, -50)">
    <!-- Circumcircle -->
    <circle cx="260" cy="240" r="150" fill="none" stroke="#94a3b8" stroke-width="1.5" stroke-dasharray="4,4" />

    <!-- Vertices coordinates (scaled for visual clarity) -->
    <!-- A: Top (260, 90) -->
    <!-- B: Left (120, 190) -->
    <!-- C: Bottom Left (170, 360) -->
    <!-- D: Bottom Right (350, 360) -->
    <!-- E: Right (400, 190) -->

    <!-- Chords -->
    <!-- Triangle ABD -->
    <line x1="260" y1="90" x2="120" y2="190" stroke="#0284c7" stroke-width="2.5" />
    <text x="175" y="130" fill="#0284c7" font-size="13" font-weight="bold">AB = 9</text>

    <line x1="260" y1="90" x2="350" y2="360" stroke="#0284c7" stroke-width="2.5" />
    <text x="320" y="210" fill="#0284c7" font-size="13" font-weight="bold">AD = 24</text>

    <line x1="120" y1="190" x2="350" y2="360" stroke="#7c3aed" stroke-width="2.5" />
    <text x="210" y="300" fill="#7c3aed" font-size="13" font-weight="bold">BD = 21</text>

    <!-- Angle Bisector AC -->
    <line x1="260" y1="90" x2="170" y2="360" stroke="#d97706" stroke-width="2.5" />

    <!-- Pentagon outer edges BC, CD, DE, EA (subtle) -->
    <line x1="120" y1="190" x2="170" y2="360" stroke="#64748b" stroke-width="1.5" stroke-dasharray="3,3" />
    <line x1="170" y1="360" x2="350" y2="360" stroke="#64748b" stroke-width="1.5" stroke-dasharray="3,3" />
    <line x1="350" y1="360" x2="400" y2="190" stroke="#64748b" stroke-width="1.5" stroke-dasharray="3,3" />
    <line x1="400" y1="190" x2="260" y2="90" stroke="#64748b" stroke-width="1.5" stroke-dasharray="3,3" />

    <!-- Diagonals BE and CE for 30 deg angles -->
    <line x1="400" y1="190" x2="170" y2="360" stroke="#64748b" stroke-width="1" stroke-dasharray="2,2" />
    <line x1="400" y1="190" x2="120" y2="190" stroke="#64748b" stroke-width="1" stroke-dasharray="2,2" />

    <!-- Angle Arcs at A -->
    <path d="M 242 105 A 25 25 0 0 1 254 112" fill="none" stroke="#d97706" stroke-width="2" />
    <text x="238" y="125" fill="#b45309" font-size="11" font-weight="bold">30°</text>

    <path d="M 254 112 A 25 25 0 0 1 270 115" fill="none" stroke="#d97706" stroke-width="2" />
    <text x="268" y="128" fill="#b45309" font-size="11" font-weight="bold">30°</text>

    <!-- Intersection F (AC intersect BD) -->
    <!-- Intersection at approx (195, 245) -->
    <circle cx="195" cy="245" r="5" fill="#e11d48" />
    <text x="182" y="235" fill="#e11d48" font-size="15" font-weight="800">F</text>

    <!-- Segments BF and FD ratio -->
    <text x="140" y="230" fill="#e11d48" font-size="12" font-weight="bold">BF = 63/11</text>

    <!-- Vertices Labels -->
    <circle cx="260" cy="90" r="5" fill="#0f172a" />
    <text x="260" y="75" fill="#0f172a" font-size="15" font-weight="800" text-anchor="middle">A</text>

    <circle cx="120" cy="190" r="5" fill="#0f172a" />
    <text x="105" y="195" fill="#0f172a" font-size="15" font-weight="800">B</text>

    <circle cx="170" cy="360" r="5" fill="#0f172a" />
    <text x="160" y="380" fill="#0f172a" font-size="15" font-weight="800">C</text>

    <circle cx="350" cy="360" r="5" fill="#0f172a" />
    <text x="360" y="380" fill="#0f172a" font-size="15" font-weight="800">D</text>

    <circle cx="400" cy="190" r="5" fill="#0f172a" />
    <text x="415" y="195" fill="#0f172a" font-size="15" font-weight="800">E</text>

    <!-- Bisector ratio callout -->
    <rect x="260" y="385" width="220" height="35" fill="#f8fafc" rx="6" stroke="#cbd5e1" stroke-width="1" />
    <text x="270" y="407" fill="#15803d" font-size="12" font-weight="bold">Ratio: BF/FD = 9/24 = 3/8</text>
  </g>
</svg>
