<svg xmlns="http://www.w3.org/2000/svg" viewBox="0 0 520 460" width="100%" height="100%" style="background-color: #ffffff; font-family: system-ui, -apple-system, sans-serif;">
  <!-- Background -->
  <rect width="520" height="460" fill="#ffffff" rx="12" />
  <!-- Grid Pattern -->
  <g stroke="#e2e8f0" stroke-width="0.8" stroke-dasharray="4,4">
    <line x1="40" y1="0" x2="40" y2="460" />
    <line x1="120" y1="0" x2="120" y2="460" />
    <line x1="200" y1="0" x2="200" y2="460" />
    <line x1="280" y1="0" x2="280" y2="460" />
    <line x1="360" y1="0" x2="360" y2="460" />
    <line x1="440" y1="0" x2="440" y2="460" />
    
    <line x1="0" y1="50" x2="520" y2="50" />
    <line x1="0" y1="110" x2="520" y2="110" />
    <line x1="0" y1="170" x2="520" y2="170" />
    <line x1="0" y1="230" x2="520" y2="230" />
    <line x1="0" y1="290" x2="520" y2="290" />
    <line x1="0" y1="350" x2="520" y2="350" />
    <line x1="0" y1="410" x2="520" y2="410" />
  </g>

  <!-- Complex Plane Axes -->
  <!-- Origin O = (100, 320), Scale S = 80 px / unit -->
  <g transform="translate(0, 15)">
    <!-- Axes -->
    <line x1="40" y1="320" x2="460" y2="320" stroke="#64748b" stroke-width="1.5" />
    <text x="445" y="310" fill="#64748b" font-size="12" font-weight="700">Re</text>

    <line x1="100" y1="400" x2="100" y2="70" stroke="#64748b" stroke-width="1.5" />
    <text x="110" y="85" fill="#64748b" font-size="12" font-weight="700">Im</text>

    <!-- Origin point -->
    <circle cx="100" cy="320" r="4" fill="#0f172a" />
    <text x="85" y="338" fill="#0f172a" font-size="13" font-weight="bold">O</text>

    <!-- Points coordinates:
         r = 5/3 = 1.667 => (100 + 1.667*80, 320) = (233.3, 320)
         w = 2 + i => (100 + 2*80, 320 - 80) = (260, 240)
         w^2 = 3 + 4i => (100 + 3*80, 320 - 4*80) = (340, 0) -> offset to y=80
    -->

    <!-- Collinear Line (y = 3x - 5) -->
    <!-- From x=1 => (180, 320-160) = (180, 480) wait,
         Line points: (233.3, 320) to (340, 0)
    -->
    <line x1="200" y1="420" x2="350" y2="10" stroke="#0284c7" stroke-width="2.5" />

    <!-- Point r (Real axis intersection) -->
    <circle cx="233.3" cy="320" r="5.5" fill="#e11d48" />
    <text x="210" y="348" fill="#e11d48" font-size="15" font-weight="800">r = 5/3</text>

    <!-- Point w = 2+i -->
    <circle cx="260" cy="240" r="5.5" fill="#0284c7" />
    <text x="272" y="245" fill="#0284c7" font-size="14" font-weight="800">w = 2 + i (2, 1)</text>

    <!-- Point w^2 = 3+4i -->
    <circle cx="340" cy="80" r="5.5" fill="#0284c7" />
    <text x="352" y="85" fill="#0284c7" font-size="14" font-weight="800">w² = 3 + 4i (3, 4)</text>

    <!-- Slope Callout -->
    <path d="M 260 240 L 340 240 L 340 80" fill="none" stroke="#7c3aed" stroke-width="1.5" stroke-dasharray="4,3" />
    <text x="300" y="260" fill="#7c3aed" font-size="12" font-weight="bold">Δx = 1</text>
    <text x="350" y="160" fill="#7c3aed" font-size="12" font-weight="bold">Δy = 3</text>
    <text x="270" y="160" fill="#0284c7" font-size="13" font-weight="800">Slope m = 3</text>

    <!-- Formula Box -->
    <rect x="50" y="360" width="420" height="40" fill="#f8fafc" rx="6" stroke="#cbd5e1" stroke-width="1" />
    <text x="65" y="385" fill="#15803d" font-size="13" font-weight="800">Line: y - 1 = 3(x - 2) ➔ y = 0 ➔ 3x - 5 = 0 ➔ r = 5/3</text>
  </g>
</svg>
