<svg xmlns="http://www.w3.org/2000/svg" viewBox="0 0 520 390" width="100%" height="100%" style="background-color: #ffffff; font-family: system-ui, -apple-system, sans-serif;">
  <defs>
    <linearGradient id="triGrad" x1="0%" y1="0%" x2="100%" y2="100%">
      <stop offset="0%" stop-color="#0284c7" stop-opacity="0.2" />
      <stop offset="100%" stop-color="#0369a1" stop-opacity="0.1" />
    </linearGradient>

    <filter id="shadow" x="-10%" y="-10%" width="120%" height="120%">
      <feDropShadow dx="0" dy="2" stdDeviation="3" flood-opacity="0.1" />
    </filter>
  </defs>

  <!-- Background -->
  <rect width="520" height="390" fill="#ffffff" rx="12" />
  <!-- Grid Pattern -->
  <g stroke="#e2e8f0" stroke-width="0.8" stroke-dasharray="4,4">
    <line x1="40" y1="0" x2="40" y2="390" />
    <line x1="120" y1="0" x2="120" y2="390" />
    <line x1="200" y1="0" x2="200" y2="390" />
    <line x1="280" y1="0" x2="280" y2="390" />
    <line x1="360" y1="0" x2="360" y2="390" />
    <line x1="440" y1="0" x2="440" y2="390" />
    
    <line x1="0" y1="50" x2="520" y2="50" />
    <line x1="0" y1="110" x2="520" y2="110" />
    <line x1="0" y1="170" x2="520" y2="170" />
    <line x1="0" y1="230" x2="520" y2="230" />
    <line x1="0" y1="290" x2="520" y2="290" />
    <line x1="0" y1="350" x2="520" y2="350" />
  </g>

  <!-- Complex Plane Axes -->
  <!-- Origin O = (200, 240), Scale S = 60 px / unit -->
  <g transform="translate(0, -45)">
    <!-- Axes -->
    <line x1="40" y1="240" x2="460" y2="240" stroke="#64748b" stroke-width="1.5" />
    <text x="445" y="230" fill="#64748b" font-size="12" font-weight="700">Re</text>

    <line x1="200" y1="410" x2="200" y2="70" stroke="#64748b" stroke-width="1.5" />
    <text x="210" y="85" fill="#64748b" font-size="12" font-weight="700">Im</text>

    <!-- Origin point -->
    <circle cx="200" cy="240" r="4" fill="#0f172a" />
    <text x="185" y="258" fill="#0f172a" font-size="13" font-weight="bold">O</text>

    <!-- Shifted Roots in u-plane -->
    <!-- u1 = -2 => (200 - 120, 240) = (80, 240) -->
    <!-- u2 = 1 + 2i => (200 + 60, 240 - 120) = (260, 120) -->
    <!-- u3 = 1 - 2i => (200 + 60, 240 + 120) = (260, 360) -->

    <!-- Triangle Polygon -->
    <polygon points="80,240 260,120 260,360" fill="url(#triGrad)" stroke="#0284c7" stroke-width="2.5" stroke-linejoin="round" />

    <!-- Root Points -->
    <circle cx="80" cy="240" r="5.5" fill="#0284c7" />
    <text x="25" y="245" fill="#0284c7" font-size="14" font-weight="800">u₁ = -2</text>

    <circle cx="260" cy="120" r="5.5" fill="#0284c7" />
    <text x="270" y="125" fill="#0284c7" font-size="14" font-weight="800">u₂ = 1 + 2i</text>

    <circle cx="260" cy="360" r="5.5" fill="#0284c7" />
    <text x="270" y="365" fill="#0284c7" font-size="14" font-weight="800">u₃ = 1 - 2i</text>

    <!-- Base Line (x = 1) -->
    <line x1="260" y1="120" x2="260" y2="360" stroke="#7c3aed" stroke-width="3" />
    <text x="270" y="245" fill="#7c3aed" font-size="13" font-weight="800">Vertical Base = 4</text>

    <!-- Height Line (y = 0 from x=-2 to x=1) -->
    <line x1="80" y1="240" x2="260" y2="240" stroke="#d97706" stroke-width="2.5" stroke-dasharray="5,3" />
    <text x="140" y="230" fill="#b45309" font-size="13" font-weight="800">Height = 3</text>

    <!-- Area Formula Box -->
    <rect x="300" y="280" width="180" height="60" fill="#f8fafc" rx="8" stroke="#cbd5e1" stroke-width="1" />
    <text x="315" y="305" fill="#0f172a" font-size="13" font-weight="700">Area Calculation:</text>
    <text x="315" y="328" fill="#15803d" font-size="14" font-weight="800">Area = 1/2 × 4 × 3 = 6</text>
  </g>
</svg>
